<?xml version="1.0" standalone="no"?>
<!DOCTYPE svg PUBLIC "-//W3C//DTD SVG 1.1//EN" "http://www.w3.org/Graphics/SVG/1.1/DTD/svg11.dtd" >
<svg>
<metadata>
Created by FontForge 20090914 at Fri Feb 24 06:49:21 2012
 By root
Copyright &#194;&#169;1994 Swfte International. All rights reserved.
</metadata>
<defs>
<font id="MicroscanARegularSwfte" horiz-adv-x="730" >
  <font-face 
    font-family="Microscan A"
    font-weight="400"
    font-stretch="normal"
    units-per-em="1000"
    panose-1="0 0 4 0 0 0 0 0 0 0"
    ascent="800"
    descent="-200"
    x-height="377"
    cap-height="545"
    bbox="0 -168 506 800"
    underline-thickness="70"
    underline-position="-115"
    unicode-range="U+0020-U+F002"
  />
<missing-glyph horiz-adv-x="500" 
d="M63 0v800h375v-800h-375zM125 63h250v675h-250v-675z" />
    <glyph glyph-name=".notdef" horiz-adv-x="500" 
d="M63 0v800h375v-800h-375zM125 63h250v675h-250v-675z" />
    <glyph glyph-name=".null" horiz-adv-x="0" 
 />
    <glyph glyph-name="nonmarkingreturn" 
 />
    <glyph glyph-name="space" unicode=" " 
 />
    <glyph glyph-name="exclam" unicode="!" 
d="M297 487l-11 -235q-4 -28 -11 -35.5t-24 -7.5q-30 0 -34 29q-3 23 -5 47l-11 218q0 30 12 38q7 4 38 4q36 0 43 -11q3 -6 3 -47zM297 48q0 -29 -9 -38.5t-37 -9.5q-29 0 -39.5 11t-10.5 39q0 49 48 49q29 0 38.5 -11t9.5 -40z" />
    <glyph glyph-name="quotedbl" unicode="&#x22;" 
d="M427 511q0 -13 -12 -76q-14 -77 -29 -104q-7 -11 -29 -11q-25 0 -42 75l-14 80h-95q-10 -42 -19 -85q-19 -70 -41 -70q-20 0 -27 11q-4 8 -23 89.5t-19 90.5v34h350v-34z" />
    <glyph glyph-name="numbersign" unicode="#" 
d="M419 218q0 -26 -23 -31l-41 -2l-2 -82q-6 -34 -34 -34q-9 0 -21 8t-12 18v89h-69v-89q1 -10 -10.5 -18t-21.5 -8q-12 0 -23 9t-11 20v84q-22 3 -44 7t-22 30q0 22 19 28q12 4 47 3v78q-22 3 -44 6.5t-22 27.5t17 30q9 3 47 4l2 79q6 34 34 34q9 0 21 -6.5t11 -16.5v-89
h69v86q0 12 11 19t21 7q35 0 35 -28v-82q22 -3 44 -7t22 -28q0 -26 -23 -31l-43 -2v-81h42q24 1 24 -32zM286 251v79h-68v-79h68z" />
    <glyph glyph-name="dollar" unicode="$" 
d="M424 147q0 -8 -13.5 -18.5t-18.5 -10.5h-106v-98q0 -16 -34 -20q-9 0 -20 5q-15 7 -15 19v94h-105q-15 0 -25 15q-7 12 -7 21q0 12 7.5 24t18.5 12h249v44h-249q-4 0 -15 11t-11 16v137q0 5 10.5 15.5t15.5 10.5h111v98q0 11 15 18q11 5 20 5q8 0 21 -6t13 -14v-101h114
q11 0 17.5 -13t6.5 -21q0 -11 -7.5 -24t-21.5 -13h-246v-48h243q8 1 20 -11t12 -17v-130z" />
    <glyph glyph-name="percent" unicode="%" 
d="M218 479q0 -47 -13 -56q-9 -7 -58 -7t-58 9.5t-9 56.5q0 49 14 59q8 4 55 4q51 0 62 -13q7 -9 7 -53zM424 453q0 -13 -23 -45l-36 -47q-230 -306 -251 -306q-15 0 -24.5 11.5t-9.5 24.5q0 14 48 76q244 320 262 320q15 0 24.5 -11t9.5 -23zM424 63q0 -47 -10.5 -55
t-59.5 -8q-51 0 -61 12q-7 8 -7 54q0 48 13 57q8 6 56 6q53 0 63 -11q6 -8 6 -55z" />
    <glyph glyph-name="ampersand" unicode="&#x26;" 
d="M424 34q0 -34 -32 -34q-22 0 -66 52q-48 -43 -63 -49q-9 -3 -55 -3q-74 0 -101 23.5t-27 96.5q0 43 5 50q2 4 69 66l-70 78q-4 5 -4 50q0 81 40 106q24 15 98 15q80 0 107 -22q30 -25 30 -99q0 -50 -15 -65l-84 -69l73 -79q5 2 30 22q21 17 31 17q14 0 24 -11.5t10 -25.5
t-12 -26l-32 -29q3 -5 29 -33q15 -16 15 -31zM284 345v59q-11 12 -66 12q-50 0 -54 -2q-15 -6 -15 -42q0 -29 13 -42q39 -40 46 -49q48 39 76 64zM278 103l-76 82l-53 -48v-44q0 -24 21 -24h69q14 13 39 34z" />
    <glyph glyph-name="quotesingle" unicode="'" 
d="M317 511q0 -7 -22 -94q-24 -97 -40 -143q-13 -7 -26 -7q-39 0 -39 32v223q0 23 62 23q31 0 42 -3q23 -7 23 -31z" />
    <glyph glyph-name="parenleft" unicode="(" 
d="M342 34q0 -15 -11.5 -24.5t-24.5 -9.5q-31 0 -89 87q-54 82 -54 107v157q0 22 54 105q59 89 90 89q14 0 24.5 -11t10.5 -23q0 -10 -55.5 -82.5t-55.5 -85.5v-144q0 -9 55.5 -82t55.5 -83z" />
    <glyph glyph-name="parenright" unicode=")" 
d="M342 194q0 -25 -58 -108q-60 -86 -87 -86q-14 0 -24 11t-10 23q0 9 55 82.5t55 83.5v145q0 9 -55 82.5t-55 83.5q0 12 10.5 23t23.5 11q31 0 90 -86q55 -82 55 -108v-157z" />
    <glyph glyph-name="asterisk" unicode="*" 
d="M427 156q0 -15 -12 -26.5t-24 -11.5q-14 0 -53 34l-50 44l-2 -109q-4 -26 -34 -26q-10 0 -21 6q-15 8 -13 23l-2 106l-50 -44q-38 -34 -52 -34q-34 0 -34 35q0 16 58 68l60 50l-60 52q-58 51 -58 67q0 34 33 34q14 0 51 -30l52 -44l2 106q-3 12 10 20.5t24 8.5
q34 0 34 -26l2 -112l49 44q37 33 54 33q36 0 36 -36q0 -12 -59 -63l-62 -54l63 -52q58 -50 58 -63z" />
    <glyph glyph-name="plus" unicode="+" 
d="M427 271q0 -7 -8 -19q-9 -15 -19 -15h-114v-118q0 -16 -34 -20q-9 0 -20 5q-15 8 -15 19v114h-113q-24 -1 -24 34t21 35h116v116q0 12 15 19q11 5 20 5q8 0 21 -6t13 -14v-120h117q10 0 17 -13.5t7 -21.5z" />
    <glyph glyph-name="comma" unicode="," 
d="M355 23q0 -9 -13 -16t-21 -7q-37 0 -37 35v144h-114q-21 0 -21 34q0 35 29 35h145q10 0 21 -9t11 -20v-196z" />
    <glyph glyph-name="hyphen" unicode="-" 
d="M377 271q0 -11 -7 -25q-9 -17 -22 -17h-192q-13 0 -21 15t-8 27q0 43 37 43h179q34 0 34 -43z" />
    <glyph glyph-name="period" unicode="." 
d="M322 154q0 -49 -10.5 -57.5t-58.5 -8.5q-46 0 -57 9.5t-11 55.5q0 47 9.5 56t58.5 9t59 -10t10 -54z" />
    <glyph glyph-name="slash" unicode="/" 
d="M427 512q0 -10 -46 -90l-158 -272q-90 -150 -107 -150q-15 0 -27 10.5t-12 21.5q0 9 112 202l164 280q18 31 38 31q17 0 26.5 -10.5t9.5 -22.5z" />
    <glyph glyph-name="zero" unicode="0" 
d="M424 56q0 -14 -20.5 -35t-36.5 -21h-230q-14 0 -35.5 20.5t-21.5 36.5v431q0 20 22 38.5t40 18.5h220q17 0 39.5 -18.5t22.5 -37.5v-433zM355 69v407h-206v-407h206z" />
    <glyph glyph-name="one" unicode="1" 
d="M424 23q0 -7 -11 -15t-15 -8h-294q-24 0 -24 34q0 35 21 35h116v407h-116q-10 0 -16 15q-5 11 -5 20q0 34 29 34h177v-476h69v155q0 10 15 18q12 6 20 6q11 0 22.5 -8t11.5 -18v-199z" />
    <glyph glyph-name="two" unicode="2" 
d="M424 34q0 -11 -7.5 -22.5t-18.5 -11.5h-318v246q0 19 21 39.5t36 19.5h218v171h-251q-24 0 -24 35q0 34 32 34h247q19 0 42 -18t23 -41v-190q0 -16 -20.5 -37.5t-38.5 -21.5h-216v-168h251q24 0 24 -35z" />
    <glyph glyph-name="three" unicode="3" 
d="M424 56q0 -15 -20.5 -35.5t-36.5 -20.5h-263q-11 0 -20 15q-7 12 -7 19q0 8 8 21.5t16 13.5h254v128q0 9 -8.5 24.5t-20.5 15.5h-154q-11 0 -19 15q-7 11 -7 19t7.5 21.5t16.5 13.5h153q13 0 22.5 14.5t9.5 25.5v130h-254q-10 0 -17 15q-7 12 -7 18q0 12 10 24t22 12h253
q17 0 39.5 -17.5t22.5 -38.5v-171q0 -6 -10 -23.5t-17 -23.5q27 -22 27 -46v-169z" />
    <glyph glyph-name="four" unicode="4" 
d="M427 213q0 -26 -36 -36v-154q0 -9 -13 -16t-21 -7q-38 0 -38 35v143h-203v344q0 11 14 18q11 5 20 5q8 0 21 -5.5t13 -14.5v-277h135v202q0 35 36 35t36 -23v-212q36 -6 36 -37z" />
    <glyph glyph-name="five" unicode="5" 
d="M424 56q0 -14 -20.5 -35t-36.5 -21h-186q-18 0 -58 22q-43 24 -43 41q0 28 33 36l81 -30h161v167h-206v309h246q29 0 29 -34q0 -9 -5 -20q-8 -15 -19 -14h-182v-172h152q16 1 35 -21t19 -34v-194z" />
    <glyph glyph-name="six" unicode="6" 
d="M424 29q0 -10 -11.5 -19.5t-20.5 -9.5h-280q-8 0 -20 9.5t-12 19.5v493q0 23 49 23q56 0 56 -36q0 -28 -37 -35v-226h252q8 0 16 -11t8 -18v-190zM355 69v110h-206v-110h206z" />
    <glyph glyph-name="seven" unicode="7" 
d="M424 326l-135 -141v-162q0 -9 -13 -16t-21 -7q-35 0 -35 21v207l72 64q63 57 63 68v116h-204q-14 -35 -37 -35q-34 0 -34 52t32 52h312v-219z" />
    <glyph glyph-name="eight" unicode="8" 
d="M424 51q0 -16 -19.5 -33.5t-34.5 -17.5h-236q-13 0 -33.5 18t-20.5 33v206q0 21 28 37q24 13 38 11l3 208q-3 10 7.5 21t21.5 11h145q9 0 20.5 -8.5t11.5 -17.5v-211q69 -13 69 -50v-207zM283 306v170h-65v-170h65zM355 69v167h-206v-167h206z" />
    <glyph glyph-name="nine" unicode="9" 
d="M424 26q0 -26 -52 -26q-53 0 -53 36q0 30 37 35v226h-252q-5 0 -14.5 11t-9.5 16v195q0 8 11.5 17t20.5 9h280q8 0 20 -9t12 -17v-493zM355 367v109h-206v-109h206z" />
    <glyph glyph-name="colon" unicode=":" 
d="M322 388q0 -47 -10.5 -55t-59.5 -8t-58 9.5t-9 56.5q0 49 14 58q8 5 54 5q52 0 63 -13q6 -9 6 -53zM322 151q0 -47 -10.5 -55t-59.5 -8t-58 9.5t-9 56.5q0 49 14 59q7 5 54 5q53 0 63 -12q6 -8 6 -55z" />
    <glyph glyph-name="semicolon" unicode=";" 
d="M286 419q0 -47 -10.5 -55.5t-59.5 -8.5t-58 9.5t-9 56.5q0 50 14 59q8 5 55 5q52 0 62 -12q6 -8 6 -54zM358 29q0 -29 -37 -29q-9 0 -20 5q-14 7 -14 19v155h-114q-11 0 -18 15q-6 11 -6 19q0 13 8 24t21 11h151q9 0 19 -11.5t10 -19.5v-188z" />
    <glyph glyph-name="less" unicode="&#x3c;" 
d="M443 85q0 -14 -11.5 -26t-25.5 -12t-326 207q-5 4 -12 16.5t-7 17.5q0 19 124 104l193 127q14 10 27 10q14 0 26 -12t12 -25q0 -19 -115 -97l-160 -107l157 -104q118 -80 118 -99z" />
    <glyph glyph-name="equal" unicode="=" 
d="M427 362q0 -6 -8 -20t-16 -14h-302q-8 0 -16 13.5t-8 20.5q0 10 9.5 22.5t22.5 12.5h286q12 0 22 -11.5t10 -23.5zM427 211q0 -8 -8 -20q-9 -15 -19 -15h-296q-11 0 -19 15q-8 12 -8 20t8.5 21t20.5 13h292q12 0 20.5 -11t8.5 -23z" />
    <glyph glyph-name="greater" unicode="&#x3e;" 
d="M443 289q0 -19 -125 -104l-197 -132q-10 -6 -23 -6q-15 0 -26 13.5t-11 24.5q0 19 110 93l165 110l-181 120q-94 61 -94 82q0 15 11.5 27t26.5 12q13 0 152 -91q122 -80 181 -123q11 -8 11 -26z" />
    <glyph glyph-name="question" unicode="?" 
d="M424 423q0 -36 -33 -74q-21 -24 -79 -70q-65 -53 -94 -83v-57q0 -15 -33 -21q-30 0 -36 25v40q0 -1 -1 11t-1 19q1 12 5.5 18t107.5 93q95 82 95 97q0 16 -6 20q-18 11 -28 22l-103 -89q-91 -77 -104 -77q-14 0 -24 11.5t-10 26.5q0 16 113 113t128 97t59 -38
q40 -36 43 -45q1 -4 1 -39zM218 34q0 -34 -35 -34q-14 0 -24 10.5t-10 23.5q0 12 9.5 23.5t24.5 11.5q35 0 35 -35z" />
    <glyph glyph-name="at" unicode="@" 
d="M419 84q0 -32 -37 -59q-33 -25 -61 -25q-46 0 -69 28q-30 -28 -67 -28q-35 0 -66 28q-34 30 -34 67v146q0 95 127 95q72 0 72 -26v-204q0 -15 9.5 -27.5t24.5 -12.5q35 0 35 51v297q0 49 -40 61q-13 4 -65 4q-63 0 -40 1q-25 -1 -38 -10q-2 -1 -21 -29q-14 -22 -31 -22
q-14 0 -23.5 10.5t-9.5 22.5q0 36 41 66q37 27 71 27h107q38 0 74 -29q41 -32 41 -74v-358zM217 97v173h-36q-12 0 -21 -14.5t-9 -23.5v-120q0 -15 8 -29q11 -17 28 -17q11 0 21 10t9 21z" />
    <glyph glyph-name="A" unicode="A" 
d="M427 29q0 -11 -13 -20t-22 -9q-26 0 -44 48l-20 67h-150l-22 -64q-20 -51 -43 -51q-12 0 -24 9.5t-12 19.5q0 -11 141 488q8 28 34 28q25 0 37 -33q7 -28 15 -56l77 -263q46 -159 46 -164zM305 185l-53 190l-53 -190h106z" />
    <glyph glyph-name="B" unicode="B" 
d="M424 149q0 -59 -32 -101q-36 -48 -99 -48h-213v545h213q70 0 105 -55q26 -43 26 -106q0 -74 -47 -113q47 -35 47 -122zM355 384q0 92 -73 92h-133v-170h133q35 0 54 23t19 55zM355 147q0 90 -65 90h-141v-168h133q37 0 56 24q17 21 17 54z" />
    <glyph glyph-name="C" unicode="C" 
d="M427 36q0 -8 -8.5 -22t-18.5 -14h-150q-57 0 -118 124q-52 105 -52 147q0 62 100 235q10 17 35 29q22 10 40 10h140q13 0 22.5 -11t9.5 -23q0 -8 -8 -20q-9 -15 -19 -15h-139q-26 0 -71 -96q-41 -88 -41 -109q0 -25 44 -111q47 -91 70 -91h140q10 0 18 -15q6 -11 6 -18z
" />
    <glyph glyph-name="D" unicode="D" 
d="M424 271q0 -42 -39 -120l-58 -109q-8 -15 -34 -28.5t-41 -13.5h-148q-12 0 -19 17q-5 12 -5 19q0 10 7 21.5t17 11.5h44v407h-42q-26 0 -26 33q0 14 9.5 25t25.5 11h137q59 0 120 -123q52 -105 52 -151zM355 270q0 19 -41 108q-46 98 -71 98h-25v-407h28q19 0 65 93
q44 88 44 108z" />
    <glyph glyph-name="E" unicode="E" 
d="M427 36q0 -12 -10 -24t-22 -12h-315v545h315q13 0 22.5 -11.5t9.5 -22.5q0 -7 -7.5 -21t-16.5 -13h-254v-172h116q17 1 21 -34q0 -9 -5 -19q-7 -15 -18 -15h-114v-168h254q10 0 18 -15q6 -11 6 -18z" />
    <glyph glyph-name="F" unicode="F" 
d="M427 511q0 -7 -7.5 -21t-16.5 -13h-254v-111h183q9 0 17.5 -13t8.5 -21q0 -7 -8 -21t-16 -13h-185v-278q0 -14 -35 -20q-12 0 -23 8t-11 21v516h315q13 0 22.5 -11.5t9.5 -22.5z" />
    <glyph glyph-name="G" unicode="G" 
d="M424 511q0 -9 -5 -20q-8 -15 -19 -15h-117q-13 0 -65 -64q-47 -58 -58 -78.5t-11 -50.5v-175q0 -14 10.5 -26.5t26.5 -12.5h132q12 0 24.5 9t12.5 23v78h-78q-11 0 -19 15q-7 11 -7 19t8 21.5t15 13.5h150v-159q0 -27 -31 -58t-61 -31h-160q-30 0 -61 30t-31 63v222
q0 36 66 119l77 90q4 6 25.5 13.5t31.5 7.5h115q29 0 29 -34z" />
    <glyph glyph-name="H" unicode="H" 
d="M424 23q0 -9 -13 -16t-21 -7q-7 0 -21 6.5t-14 14.5v216h-206v-217q0 -16 -35 -20q-8 0 -19 5q-15 7 -15 19v498q0 11 14 18q11 5 20 5q8 0 21.5 -5.5t13.5 -14.5v-219h206v218q0 17 35 21q8 0 21 -7t13 -16v-499z" />
    <glyph glyph-name="I" unicode="I" 
d="M427 34q0 -7 -8 -19q-9 -15 -19 -15h-296q-24 0 -24 34q0 35 21 35h116v407h-116q-10 0 -16 15q-5 11 -5 20q0 34 29 34h286q12 0 22 -11t10 -23q0 -6 -8.5 -20.5t-15.5 -14.5h-116v-407h116q10 0 17 -13.5t7 -21.5z" />
    <glyph glyph-name="J" unicode="J" 
d="M391 84q0 -51 -57 -71q-34 -13 -79 -13q-139 0 -139 93v131q0 11 14 18q11 6 20 6q8 0 21.5 -5.5t13.5 -14.5v-120q0 -30 26 -37q8 -2 44 -2q64 0 64 21v421q0 34 38 34q8 0 21 -6.5t13 -16.5v-438z" />
    <glyph glyph-name="K" unicode="K" 
d="M427 36q0 -13 -11.5 -24.5t-23.5 -11.5q-13 0 -117 89l-124 107l-2 -170q-5 -26 -35 -26q-8 0 -19 5q-15 7 -15 19v498q0 11 14 18q11 5 20 5q29 0 35 -26l2 -169l128 110q102 85 113 85q15 0 25 -11.5t10 -25.5t-110 -108l-149 -126l145 -125q114 -99 114 -113z" />
    <glyph glyph-name="L" unicode="L" 
d="M427 36q0 -8 -8.5 -22t-18.5 -14h-320v522q0 11 14 18q11 5 20 5q8 0 21.5 -5.5t13.5 -14.5v-456h254q10 0 18 -15q6 -11 6 -18z" />
    <glyph glyph-name="M" unicode="M" 
d="M424 23q0 -9 -13 -16t-21 -7q-28 0 -35 26l-1 423q-24 -32 -64 -96q-1 -15 -10 -44q-8 -12 -27 -12q-26 0 -31 21q-3 16 -5 32l-64 96l-4 -420q-5 -26 -35 -26q-12 0 -23 8t-11 21v516h87l85 -124l85 124h87v-522z" />
    <glyph glyph-name="N" unicode="N" 
d="M424 0h-93l-183 421v-401q1 -16 -34 -20q-12 0 -23 8t-11 21v516h93l183 -427v406q-1 16 34 21q8 0 21 -7t13 -16v-522z" />
    <glyph glyph-name="O" unicode="O" 
d="M424 270q0 -64 -100 -234q-10 -16 -32.5 -26t-40.5 -10q-54 0 -74 39l-59 115q-38 78 -38 117q0 70 100 238q22 36 71 36q52 0 70 -34l66 -123q37 -76 37 -118zM355 273q0 11 -41 103q-44 100 -62 100t-62 -99q-41 -92 -41 -106q0 -17 41 -107q43 -95 62 -95q16 0 60 94
q43 91 43 110z" />
    <glyph glyph-name="P" unicode="P" 
d="M424 298q0 -33 -32.5 -62t-62.5 -29h-180v-187q0 -16 -35 -20q-12 0 -23 8t-11 21v516h249q33 0 64 -30.5t31 -63.5v-153zM355 315v122q0 17 -13 28t-33 11h-160v-200h160q46 -1 46 39z" />
    <glyph glyph-name="Q" unicode="Q" 
d="M424 34q0 -34 -32 -34h-94l-27 63q-40 -37 -55 -47q-25 -16 -52 -16q-25 0 -53 20q-31 23 -31 53v228q0 52 97 135l129 102q8 7 33 7q29 0 55 -20q30 -22 30 -52v-230q0 -53 -96 -132l18 -42h54q11 0 18 -15q6 -11 6 -20zM355 257v205q0 4 -5 9t-10 5t-71 -56t-105 -95
q-15 -15 -15 -38v-203q0 -15 15 -15q10 0 45 31q29 27 36 36l-27 78q4 31 34 31q21 0 32 -22l17 -41q54 36 54 75z" />
    <glyph glyph-name="R" unicode="R" 
d="M424 32q0 -14 -11.5 -23t-22.5 -9q-16 0 -106 125l-121 171l-15 2v-278q1 -16 -34 -20q-12 0 -23 8t-11 21v516h246q98 0 98 -125q0 -45 -17 -77q-24 -46 -75 -46h-82l98 -141q76 -111 76 -124zM355 420q0 29 -5 39q-9 17 -41 17h-160v-110h166q27 0 35 15q5 9 5 39z" />
    <glyph glyph-name="S" unicode="S" 
d="M424 78q0 -28 -20.5 -53t-49.5 -25h-190q-30 0 -57 28t-27 57q0 44 37 44q27 0 29.5 -28t28.5 -32l178 5l-183 246q-90 121 -90 148q0 32 21.5 54.5t51.5 22.5h184q34 0 62 -31q25 -28 25 -57q0 -41 -36 -41q-28 0 -31.5 30t-24.5 30h-173q-3 0 -10 -7l146 -195
q129 -172 129 -196z" />
    <glyph glyph-name="T" unicode="T" 
d="M424 439q0 -23 -36 -23q-24 0 -30 18q-4 10 -2 42h-70v-456q0 -16 -34 -20q-9 0 -20 5q-14 7 -14 19v452h-67q-2 -19 -3 -37q-6 -23 -32 -23q-36 0 -36 24v105h344v-106z" />
    <glyph glyph-name="U" unicode="U" 
d="M424 92q0 -34 -32.5 -63t-62.5 -29h-157q-31 0 -61.5 32t-30.5 63v427q0 11 14 18q11 5 20 5q8 0 21.5 -5.5t13.5 -14.5v-419q0 -13 10 -25t25 -12h137q14 0 24 12.5t10 24.5v418q0 16 35 21q8 0 21 -7t13 -16v-430z" />
    <glyph glyph-name="V" unicode="V" 
d="M424 381q0 -4 -53 -141q-59 -153 -94 -231q-4 -9 -25 -9q-25 0 -33.5 22.5t-15.5 44.5q-31 71 -78 193q-45 116 -45 122v140q0 11 14 18q11 5 20 5q8 0 21.5 -5.5t13.5 -14.5v-121l103 -272l103 272v120q0 16 35 21q8 0 21 -7t13 -16v-141z" />
    <glyph glyph-name="W" unicode="W" 
d="M424 86q0 -5 -15 -33q-17 -31 -32 -46q-6 -7 -55 -7q-32 0 -43 3q-15 4 -25 19q-30 -22 -72 -22l-13 -1.5t-21 -0.5q-12 1 -18 6q-17 14 -35 47q-15 29 -15 36v435q0 11 14 18q11 5 20 5q8 0 21.5 -5.5t13.5 -14.5v-422q0 -12 12.5 -23t21.5 -11q10 0 22.5 11t12.5 24
v233q0 12 14 22q12 7 20 7q7 0 20.5 -8t13.5 -18v-237q0 -12 13 -23t22 -11q8 0 21 11t13 24v420q0 16 35 21q8 0 21 -7t13 -16v-436z" />
    <glyph glyph-name="X" unicode="X" 
d="M427 33q0 -16 -15 -26q-10 -7 -21 -7q-19 0 -74 90l-65 111l-62 -105q-60 -96 -77 -96q-14 0 -25 11.5t-11 21.5q0 17 135 238l-135 241q5 33 36 33q18 0 73 -90l63 -108l64 104q61 94 78 94q29 0 36 -33l-135 -239l75 -128q60 -103 60 -112z" />
    <glyph glyph-name="Y" unicode="Y" 
d="M424 481q0 -1 1.5 -11t0.5 -17q0 -9 -3 -14q-23 -36 -83 -112q-54 -67 -54 -69v-238q0 -16 -34 -20q-9 0 -20 5q-14 7 -14 19v236q-17 24 -105 131q-33 41 -33 90q0 36 1 39q5 25 33 25q8 0 21.5 -5.5t13.5 -14.5v-61q0 -6 103 -134q103 125 103 134v60q0 16 35 21
q28 0 33 -26q1 -3 1 -38z" />
    <glyph glyph-name="Z" unicode="Z" 
d="M427 34q0 -7 -8 -19q-9 -15 -19 -15h-323v43l251 434h-227q-8 -1 -16 13t-8 21q0 10 9.5 22t22.5 12h318v-43l-254 -433h230q10 0 17 -13.5t7 -21.5z" />
    <glyph glyph-name="bracketleft" unicode="[" 
d="M424 36q0 -14 -9 -25t-20 -11h-283q-8 0 -20 9.5t-12 19.5v484q0 12 10.5 22t24.5 10h274q15 0 25 -10t10 -24q0 -11 -7.5 -23t-18.5 -11h-144v-408h144q26 0 26 -33zM184 69v407h-35v-407h35z" />
    <glyph glyph-name="backslash" unicode="\" 
d="M427 32q0 -13 -13 -22.5t-23 -9.5q-19 0 -38 28l-30 53q-246 405 -246 430q0 11 12 22.5t25 11.5q16 0 41 -38l27 -48q245 -410 245 -427z" />
    <glyph glyph-name="bracketright" unicode="]" 
d="M424 26q0 -11 -10.5 -18.5t-18.5 -7.5h-286q-11 0 -20 11.5t-9 22.5q0 10 8.5 22.5t17.5 12.5h144v407h-144q-26 0 -26 33q0 14 9.5 25t25.5 11h274q12 0 23.5 -7.5t11.5 -20.5v-491zM355 69v407h-35v-407h35z" />
    <glyph glyph-name="asciicircum" unicode="^" 
d="M416 143q0 -12 -11.5 -21t-20.5 -9q-16 0 -71 78l-61 90l-61 -89q-55 -79 -71 -79q-13 0 -22.5 9t-9.5 21q0 11 40 85l55 105q51 91 69 91q20 0 38 -31q12 -24 25.5 -48.5l54.5 -102.5q46 -89 46 -99z" />
    <glyph glyph-name="underscore" unicode="_" 
d="M506 -118h-506v85h506v-85z" />
    <glyph glyph-name="grave" unicode="`" 
d="M289 628q0 -15 -10.5 -26.5t-19.5 -11.5q-15 0 -79 40.5t-64 52.5t8.5 25.5t20.5 13.5q14 0 79 -41t65 -53z" />
    <glyph glyph-name="a" unicode="a" 
d="M416 76q0 -40 -1 -45q-5 -31 -28 -31q-27 0 -36 33q-49 -27 -65 -31q-8 -2 -56 -2q-79 0 -109 23q-33 25 -33 98q0 40 17 72q24 44 70 44h167q2 3 2 16q0 58 -46 58h-117q-14 0 -22 15q-5 10 -5 18q0 14 10 23.5t25 9.5h123q36 0 66 -27.5t32 -67.5zM347 105v34
q0 16 -14.5 24t-28.5 8h-109q-27 0 -35 -17q-6 -10 -6 -36q0 -52 35 -52h80z" />
    <glyph glyph-name="b" unicode="b" 
d="M416 100q0 -47 -60 -77q-46 -23 -87 -23t-49 2q-22 7 -64 45q-8 -33 -9 -35q-6 -12 -26 -12q-33 0 -33 32v451q0 11 10 21.5t23 10.5q30 0 33 -32l2 -153q41 39 58 45q7 2 55 2q47 0 50 -1q27 -10 59 -39q38 -35 38 -63v-174zM350 139v113q0 28 -28 45q-24 14 -53 14
q-45 0 -78 -31q-37 -35 -37 -91q0 -46 4 -51q38 -48 52 -58q19 -14 57 -14q83 0 83 73z" />
    <glyph glyph-name="c" unicode="c" 
d="M416 33q0 -11 -9 -22t-20 -11h-154q-28 0 -73 36q-40 32 -60 61q-12 18 -12 91.5t-1 45.5q1 27 10 41q20 28 60 62q50 40 82 40h142q35 0 35 -33q0 -11 -9 -22t-20 -11h-143q-14 0 -48 -29q-30 -26 -39 -39q-3 -5 -3 -54q0 1 -1 -15q-1 -13 0 -22q0 -13 4 -18
q14 -17 45 -41q34 -27 45 -27h142q14 0 20.5 -12.5t6.5 -20.5z" />
    <glyph glyph-name="d" unicode="d" 
d="M416 29q0 -29 -33 -29q-32 0 -35 50q-40 -40 -59 -47q-9 -3 -52 -3q-41 0 -88 23q-61 30 -61 81v172q0 49 59 78q45 23 90 23q40 0 50 -3q28 -8 61 -46l2 158q5 29 33 29q11 0 22 -9.5t11 -19.5v-457zM350 189q0 51 -7 58q-48 49 -58 55q-15 9 -51 9q-29 0 -52 -14
q-28 -18 -28 -51v-123q0 -26 28 -42q25 -15 53 -15q33 0 50 12l61 55q4 15 4 56z" />
    <glyph glyph-name="e" unicode="e" 
d="M416 34q0 -11 -10 -22.5t-22 -11.5h-200q-24 0 -60 40t-36 61v175q0 53 67 81q47 20 96 20q165 0 165 -158q0 -41 -1 -45q-5 -33 -28 -33h-231q-2 -4 -2 -14q0 -22 21 -41.5t39 -19.5h175q12 0 19.5 -11t7.5 -21zM350 207v45q0 59 -98 59q-27 0 -53 -7q-45 -13 -45 -41
v-56h196z" />
    <glyph glyph-name="f" unicode="f" 
d="M419 482q0 -12 -9.5 -22.5t-20.5 -10.5h-84q-20 0 -36 -12t-16 -33v-27h76q15 0 23.5 -10.5t8.5 -22.5q0 -8 -9.5 -20.5t-19.5 -12.5h-79v-285q0 -12 -12.5 -19t-20.5 -7q-12 0 -22.5 9.5t-10.5 19.5v280q-19 2 -39 5q-27 4 -27 30q0 33 64 33q4 91 50 120q29 18 105 18
q40 0 49 -2q30 -6 30 -31z" />
    <glyph glyph-name="g" unicode="g" 
d="M416 -35q0 -36 -44.5 -72t-73.5 -36h-148q-29 0 -29 33q0 10 7 21.5t17 11.5h148q27 0 44 32q10 19 13 35l-2 87q-33 -37 -58 -44q-9 -3 -52 -3q-54 0 -61 4q-24 12 -52 38q-37 33 -37 56v143q0 58 92 102q8 4 54 4q42 0 50 -3q13 -5 64 -44q3 23 5 28q8 19 30 19
q13 0 23 -8.5t10 -19.5v-384zM350 204q0 4 -2 19t-2 21l-63 55q-18 12 -49 12q-22 0 -46 -10q-34 -15 -34 -41v-115q0 -24 35 -38q25 -11 45 -11q32 0 49 12q3 2 63 55q4 23 4 41z" />
    <glyph glyph-name="h" unicode="h" 
d="M416 77q0 -46 -1 -50q-5 -27 -29 -27q-29 0 -36 43l-6 220q-1 38 -19 46q-5 2 -33 2q-27 0 -62 -21l-75 -50v-214q0 -14 -15 -21q-11 -5 -19 -5q-12 0 -22.5 9.5t-10.5 19.5v454q0 11 10 21.5t23 10.5q14 0 24 -9t10 -22v-165l73 47q22 11 65 11q110 0 117 -92z" />
    <glyph glyph-name="i" unicode="i" 
d="M286 497q0 -36 -11 -43q-4 -2 -40 -2q-34 0 -42 6.5t-8 39.5q0 34 10 42q8 5 40 5q35 0 43 -6.5t8 -41.5zM383 34q0 -34 -29 -34h-204q-29 0 -29 33q0 10 7 21.5t17 11.5h75v245h-72q-27 0 -27 33q0 27 34 33h48.5h48.5q34 -5 34 -28v-283h70q27 0 27 -32z" />
    <glyph glyph-name="j" unicode="j" 
d="M383 497q0 -36 -12 -43q-4 -2 -39 -2q-34 0 -42.5 6.5t-8.5 39.5q0 34 11 42q7 5 40 5q35 0 43 -6.5t8 -41.5zM383 -60q0 -83 -131 -83q-134 0 -134 88q0 16 15 26q11 7 21 7q15 0 23 -14q11 -21 18 -27q18 -14 58 -14q44 0 54 8t10 49v331h-103q-11 0 -20 15
q-7 11 -7 17q0 10 10 22t25 12h123q38 0 38 -28v-409z" />
    <glyph glyph-name="k" unicode="k" 
d="M416 34q0 -14 -11.5 -24t-23.5 -10q-14 0 -198 157q-9 -8 -28 -27v-104q0 -14 -15 -21q-11 -5 -19 -5q-12 0 -22.5 9.5t-10.5 19.5v454q0 11 10 21.5t23 10.5q14 0 24 -9t10 -22v-264l97 83q89 74 102 74t22.5 -11.5t9.5 -22.5q0 -17 -73 -78l-76 -63l97 -83
q82 -72 82 -85z" />
    <glyph glyph-name="l" unicode="l" 
d="M383 34q0 -34 -29 -34h-204q-29 0 -29 33q0 10 7 21.5t17 11.5h75v383h-72q-27 0 -27 33q0 27 32 32q4 1 51 1q44 0 48 -1q34 -4 34 -28v-420h70q27 0 27 -32z" />
    <glyph glyph-name="m" unicode="m" 
d="M416 29q-5 -29 -30 -29q-29 0 -36 43l-6 239q-4 21 -16 21q-8 0 -22 -15l-22 -23v-239q0 -12 -15 -20q-11 -6 -18 -6q-13 0 -23 9.5t-10 19.5v258q0 5 -5.5 10.5t-10.5 5.5q-10 0 -22.5 -13.5l-25.5 -27.5v-236q0 -12 -12.5 -19t-20.5 -7q-12 0 -22.5 9.5t-10.5 19.5v316
q0 32 35 32q22 0 33 -25q1 1 25 18q11 7 30 7q37 0 60 -33q32 33 66 33q64 0 73 -73z" />
    <glyph glyph-name="n" unicode="n" 
d="M416 77q0 -46 -1 -50q-5 -27 -29 -27q-29 0 -36 43l-6 217q-1 35 -11.5 43t-43.5 8q-26 0 -68 -27l-67 -44v-214q0 -12 -12.5 -19t-20.5 -7q-12 0 -22.5 9.5t-10.5 19.5v316q0 32 33 32q22 0 29 -16l6 -39l75 45q19 10 62 10q110 0 117 -92z" />
    <glyph glyph-name="o" unicode="o" 
d="M416 103q0 -58 -72 -86q-45 -17 -92 -17q-49 0 -93 17q-71 28 -71 87v170q0 59 72 86q45 17 93 17t95 -19q68 -28 68 -84v-171zM350 125v127q0 59 -98 59q-31 0 -57 -9q-41 -14 -41 -45v-137q0 -31 46 -45q27 -9 52 -9q31 0 56 9q42 15 42 50z" />
    <glyph glyph-name="p" unicode="p" 
d="M416 117q0 -59 -128 -130q-1 -1 -33 -1q-34 0 -43 5q-15 7 -56 48l-2 -151q-3 -31 -33 -31q-33 0 -33 32v456q0 32 33 32q22 0 27 -12l8 -40q54 46 56 47q8 5 41 5q44 0 102 -45q61 -48 61 -88v-127zM350 182q0 56 -7 65q-49 64 -90 64q-18 0 -50 -30q-27 -24 -45 -50
q-4 -6 -4 -49q0 -48 7 -58q16 -23 42 -45q31 -27 50 -27q17 0 54 30q34 28 39 40q4 9 4 60z" />
    <glyph glyph-name="q" unicode="q" 
d="M416 -115q0 -28 -33 -28q-30 0 -33 31l-2 162q-33 -39 -58 -47q-10 -3 -53 -3q-42 0 -90 25q-59 31 -59 76v175q0 49 59 79q45 22 88 22t52 -3q25 -8 61 -46q7 34 9 37q6 12 26 12q12 0 22.5 -9.5t10.5 -21.5v-461zM350 189q0 46 -4 53q-15 22 -68 62q-10 7 -41 7
q-19 0 -46 -10q-37 -15 -37 -38v-146q0 -27 37 -41q25 -10 46 -10q44 0 106 64q6 6 7.5 15t0.5 22q-1 19 -1 22z" />
    <glyph glyph-name="r" unicode="r" 
d="M416 275q0 -46 -32 -46q-29 0 -32 20.5t-5 40.5q-8 21 -47 21q-31 0 -67 -29l-79 -66v-190q0 -12 -12.5 -19t-20.5 -7q-12 0 -22.5 9.5t-10.5 19.5v316q0 32 33 32q29 0 33 -34l2 -37q73 59 80 63q15 8 60 8q120 0 120 -102z" />
    <glyph glyph-name="s" unicode="s" 
d="M416 99q0 -39 -25.5 -69t-64.5 -30h-156q-16 0 -48 19q-37 22 -37 42q0 14 15 24q11 9 23 9q4 0 27.5 -14t38.5 -14h126q35 0 35 37q0 22 -66 50q-105 45 -122 55q-66 38 -66 84q0 31 24 58t58 27h151q21 0 48 -18q31 -20 31 -41q0 -34 -35 -34q-12 0 -28 13.5t-27 13.5
h-134q-21 0 -21 -19q0 -17 65 -43q92 -36 122 -55q66 -41 66 -95z" />
    <glyph glyph-name="t" unicode="t" 
d="M416 88q0 -88 -130 -88q-47 0 -80 15q-49 23 -49 75v221h-42q-13 0 -21 15q-6 11 -6 18q0 25 23 31q5 1 44 2l2 79q4 37 33 37q33 0 33 -26v-90h128q29 0 29 -33t-26 -33h-131v-205q0 -30 23 -37q9 -3 39 -3q41 0 55 15q3 3 14 28q7 15 27 15q35 0 35 -36z" />
    <glyph glyph-name="u" unicode="u" 
d="M416 29q0 -29 -32 -29q-23 0 -28 14l-8 44l-75 -49q-18 -9 -62 -9q-118 0 -118 105q0 10 1 20l-6 192q0 60 33 60q30 0 33 -37l6 -206q2 -46 11 -57t45 -11q27 0 66 26q64 43 68 45v217q0 10 14 17q11 6 19 6q11 0 22 -9.5t11 -18.5v-320z" />
    <glyph glyph-name="v" unicode="v" 
d="M416 313q0 -51 -125 -304q-5 -9 -39 -9t-40 9q-18 30 -66 140q-58 132 -58 166q0 32 3 40q6 22 30 22q12 0 22.5 -9t10.5 -19v-56q0 -11 98 -221l98 230v49q0 13 14 21q11 5 19 5q25 0 31 -26q2 -7 2 -38z" />
    <glyph glyph-name="w" unicode="w" 
d="M416 313l-6 -166q-6 -11 -16.5 -54t-20.5 -62q-17 -31 -43 -31q-27 0 -41 19l-37 55q-6 -6 -37 -51q-15 -23 -43 -23q-32 0 -54 65l-24 82l-6 166q0 33 2 39q5 25 30 25q34 0 34 -39v-177l27 -65q37 45 37 60v76q0 14 10.5 23t23.5 9q11 0 21.5 -9.5t10.5 -18.5v-81
q0 -2 37 -61l29 70v179q0 13 10 23.5t24 10.5q24 0 30 -25q2 -7 2 -39z" />
    <glyph glyph-name="x" unicode="x" 
d="M416 36q0 -14 -11.5 -25t-23.5 -11q-17 0 -72 66l-57 72l-61 -73q-56 -65 -71 -65q-13 0 -24 12t-11 24q0 10 119 150l-62 75q-57 71 -57 80q0 13 10 24.5t25 11.5q16 0 72 -68l57 -72l58 73q57 67 74 67q14 0 24.5 -11.5t10.5 -24.5q0 -12 -57 -79l-64 -73l64 -74
q57 -67 57 -79z" />
    <glyph glyph-name="y" unicode="y" 
d="M416 315q0 -30 -2 -36q-2 -9 -25 -58l-78 -181q-49 -110 -91 -176q-4 -7 -60 -7q-35 0 -42 1q-30 6 -30 32q0 10 8 21.5t19 11.5h62q20 34 52 103q-12 0 -30 10q-23 41 -63 134q-48 113 -48 147q0 60 33 60t33 -26v-52l93 -206h10l93 206v54q0 11 14 19q11 5 19 5
q33 0 33 -62z" />
    <glyph glyph-name="z" unicode="z" 
d="M416 34q0 -10 -10.5 -22t-21.5 -12h-267q-32 0 -32 48q0 25 113 136l130 125l-192 2q-31 2 -31 33q0 14 11 23.5t23 9.5h242q35 0 35 -45q0 -31 -113 -140l-132 -124l213 -2q32 -3 32 -32z" />
    <glyph glyph-name="braceleft" unicode="{" 
d="M427 34q0 -7 -8 -19q-9 -15 -19 -15h-123q-16 0 -37.5 20t-21.5 37v151q0 8 -10.5 18.5t-19.5 10.5h-84q-24 0 -24 34q0 35 21 35h82q14 0 24.5 10t10.5 22v150q0 19 21.5 38t40.5 19h115q12 0 22 -11t10 -23q0 -7 -7.5 -21t-16.5 -13h-117v-157q1 -19 -27 -49
q5 -3 16 -24t11 -28v-150h117q10 0 17 -13.5t7 -21.5z" />
    <glyph glyph-name="bar" unicode="|" 
d="M286 -168h-68v738h68v-738z" />
    <glyph glyph-name="braceright" unicode="}" 
d="M427 271q0 -7 -8.5 -20.5t-18.5 -13.5h-82q-13 0 -22.5 -12.5t-9.5 -24.5v-149q0 -16 -24 -33.5t-35 -17.5h-123q-24 0 -24 34q0 35 21 35h116v144q0 8 13 32q10 20 15 26q-7 5 -17.5 28t-10.5 33v144h-116q-10 0 -16 15q-5 11 -5 20q0 34 29 34h115q13 0 35 -14
q27 -17 27 -36v-152q0 -14 11.5 -25.5t26.5 -11.5h79q10 0 17 -13.5t7 -21.5z" />
    <glyph glyph-name="asciitilde" unicode="~" 
d="M446 638q0 -48 -34 -48l-238 24q-2 0 -16.5 -12t-26.5 -12q-35 0 -35 50q0 49 36 49l237 -25q1 0 15 12.5t26 12.5q36 0 36 -51z" />
    <glyph glyph-name="Adieresis" unicode="&#xc4;" horiz-adv-x="0" 
 />
    <glyph glyph-name="Aring" unicode="&#xc5;" horiz-adv-x="0" 
 />
    <glyph glyph-name="Ccedilla" unicode="&#xc7;" horiz-adv-x="0" 
 />
    <glyph glyph-name="Eacute" unicode="&#xc9;" horiz-adv-x="0" 
 />
    <glyph glyph-name="Ntilde" unicode="&#xd1;" horiz-adv-x="0" 
 />
    <glyph glyph-name="Odieresis" unicode="&#xd6;" horiz-adv-x="0" 
 />
    <glyph glyph-name="Udieresis" unicode="&#xdc;" horiz-adv-x="0" 
 />
    <glyph glyph-name="aacute" unicode="&#xe1;" horiz-adv-x="0" 
 />
    <glyph glyph-name="agrave" unicode="&#xe0;" horiz-adv-x="0" 
 />
    <glyph glyph-name="acircumflex" unicode="&#xe2;" horiz-adv-x="0" 
 />
    <glyph glyph-name="adieresis" unicode="&#xe4;" horiz-adv-x="0" 
 />
    <glyph glyph-name="atilde" unicode="&#xe3;" horiz-adv-x="0" 
 />
    <glyph glyph-name="aring" unicode="&#xe5;" horiz-adv-x="0" 
 />
    <glyph glyph-name="ccedilla" unicode="&#xe7;" horiz-adv-x="0" 
 />
    <glyph glyph-name="eacute" unicode="&#xe9;" horiz-adv-x="0" 
 />
    <glyph glyph-name="egrave" unicode="&#xe8;" horiz-adv-x="0" 
 />
    <glyph glyph-name="ecircumflex" unicode="&#xea;" horiz-adv-x="0" 
 />
    <glyph glyph-name="edieresis" unicode="&#xeb;" horiz-adv-x="0" 
 />
    <glyph glyph-name="iacute" unicode="&#xed;" horiz-adv-x="0" 
 />
    <glyph glyph-name="igrave" unicode="&#xec;" horiz-adv-x="0" 
 />
    <glyph glyph-name="icircumflex" unicode="&#xee;" horiz-adv-x="0" 
 />
    <glyph glyph-name="idieresis" unicode="&#xef;" horiz-adv-x="0" 
 />
    <glyph glyph-name="ntilde" unicode="&#xf1;" horiz-adv-x="0" 
 />
    <glyph glyph-name="oacute" unicode="&#xf3;" horiz-adv-x="0" 
 />
    <glyph glyph-name="ograve" unicode="&#xf2;" horiz-adv-x="0" 
 />
    <glyph glyph-name="ocircumflex" unicode="&#xf4;" horiz-adv-x="0" 
 />
    <glyph glyph-name="odieresis" unicode="&#xf6;" horiz-adv-x="0" 
 />
    <glyph glyph-name="otilde" unicode="&#xf5;" horiz-adv-x="0" 
 />
    <glyph glyph-name="uacute" unicode="&#xfa;" horiz-adv-x="0" 
 />
    <glyph glyph-name="ugrave" unicode="&#xf9;" horiz-adv-x="0" 
 />
    <glyph glyph-name="ucircumflex" unicode="&#xfb;" horiz-adv-x="0" 
 />
    <glyph glyph-name="udieresis" unicode="&#xfc;" horiz-adv-x="0" 
 />
    <glyph glyph-name="dagger" unicode="&#x2020;" 
d="M369 344q0 -8 -8 -20.5t-18 -12.5h-46v-282q0 -14 -10.5 -21.5t-22.5 -7.5t-22.5 9.5t-9.5 19.5v282h-43q-11 0 -20 15q-6 12 -6 18q0 25 27 31q2 0 39 2l2 82q4 34 33 34q34 0 33 -26v-88q23 -2 45 -5q27 -5 27 -30z" />
    <glyph glyph-name="degree" unicode="&#xb0;" 
d="M185 477q0 -52 -16 -62q-9 -7 -59 -7q-52 0 -63 9.5t-11 60.5t12 60q9 7 62 7q52 0 63.5 -10t11.5 -58zM154 477q0 26 -6.5 33.5t-37.5 7.5q-29 0 -35 -5q-9 -6 -9 -36q0 -29 6.5 -35.5t36.5 -6.5t37.5 6t7.5 36z" />
    <glyph glyph-name="cent" unicode="&#xa2;" 
d="M416 33q0 -11 -8 -22t-19 -11h-48v-57q1 -26 -30 -26q-24 0 -29 38q-1 4 -1 43q-2 2 -49 2q-10 1 -30 9q-85 59 -102 92q-12 21 -12 88q0 57 6 80q5 18 58 63t76 45h51l4 49q4 31 28 31q12 0 21 -8t9 -18v-54h48q12 0 19.5 -11t7.5 -20q0 -12 -10 -23.5t-22 -11.5h-143
q-9 0 -44.5 -30t-39 -38t-3.5 -54q0 -47 3 -54t39.5 -38t47.5 -31h143q12 0 20.5 -11t8.5 -22z" />
    <glyph glyph-name="sterling" unicode="&#xa3;" 
d="M427 34q0 -7 -8 -19q-9 -15 -19 -15h-296q-11 0 -19 15q-8 12 -8 19t7.5 21t16.5 14h54l49 171h-103q-8 -1 -16 13t-8 21t8 19q9 16 19 16h120q19 31 30.5 101t26.5 94q27 41 92 41q54 0 54 -34q0 -7 -8 -21t-16 -14h-40q-17 0 -33.5 -56.5l-32.5 -110.5h98
q12 0 22 -11.5t10 -23.5q0 -6 -8.5 -20.5t-15.5 -14.5h-123l-52 -170h175q10 0 17 -13.5t7 -21.5z" />
    <glyph glyph-name="section" unicode="&#xa7;" 
d="M383 81q0 -28 -17 -51q-21 -27 -54 -27h-134q-12 0 -34.5 18t-22.5 30q0 23 28 23q3 0 21 -9.5t22 -9.5h118q18 0 18 26q0 21 -52 44q-93 42 -95 43q-52 29 -52 65q0 51 56 69l-36 26q-20 18 -20 48q0 23 17.5 45t45.5 22h115q18 0 41 -12q29 -16 29 -36q0 -26 -27 -26
q-8 0 -15 6q-11 8 -19.5 12t-63.5 4q-58 0 -70 -10v-10q21 -14 98 -47q67 -28 93 -55q10 -9 10 -47q0 -48 -39 -72q39 -24 39 -69zM328 210v26q-13 12 -21 12l-122 -3q0 -1 -1.5 -4t-1.5 -7q0 -15 42 -28q34 -10 50 -10q42 0 54 14z" />
    <glyph glyph-name="bullet" unicode="&#x2022;" 
d="M355 280q0 -98 -45 -98h-115q-36 0 -46 38q-3 14 -3 58q0 48 3 60q11 37 51 37h104q38 0 48 -38q3 -12 3 -57z" />
    <glyph glyph-name="paragraph" unicode="&#xb6;" 
d="M424 23q0 -9 -13 -16t-21 -7q-35 0 -35 21v185h-66v-183q0 -10 -10.5 -16.5t-18.5 -6.5q-6 0 -14 4q-12 6 -12 14v188h-59q-32 0 -63.5 31.5t-31.5 61.5v151q0 33 31 64t64 31h249v-522zM355 276v200h-65v-200h65zM234 276v200h-42q-19 0 -31 -11t-12 -26v-126
q0 -14 12 -26t25 -11h48z" />
    <glyph glyph-name="germandbls" unicode="&#xdf;" 
d="M424 320q0 -20 -33 -57v-240q0 -7 -11 -15t-15 -8h-135q-23 0 -23 34q0 35 21 35h91v245q5 -2 10 -2q26 0 26 82q0 3 1 14.5t1 18.5q0 49 -42 50h-166v-454q0 -9 -13.5 -16t-21.5 -7q-11 0 -22.5 7.5t-11.5 21.5v516h246q28 0 62 -25q36 -28 36 -58v-142z" />
    <glyph glyph-name="registered" unicode="&#xae;" 
d="M463 106q0 -41 -31 -76.5t-73 -35.5h-211q-45 0 -76 32t-31 78v183q0 47 33 75.5t79 28.5h198q47 0 79.5 -29t32.5 -77v-179zM421 114v163q0 37 -33 58q-27 17 -59 17h-154q-34 0 -61 -19q-31 -21 -31 -54v-170q0 -35 34 -58q28 -18 55 -18h162q33 0 60 23.5t27 57.5z
M338 71q0 -15 -17 -15q-8 0 -52 61l-60 85l-8 1v-137q0 -9 -17 -10q-17 0 -16 14v255h121q49 0 49 -62q0 -60 -46 -61h-40l48 -69q38 -55 38 -62zM304 263q0 28 -23 28h-79v-54h82q20 0 20 26z" />
    <glyph glyph-name="copyright" unicode="&#xa9;" 
d="M463 106q0 -39 -29 -73q-31 -39 -75 -39h-211q-45 0 -76 32t-31 78v183q0 47 33 75.5t79 28.5h198q47 0 79.5 -29t32.5 -77v-179zM421 114v163q0 37 -33 58q-27 17 -59 17h-154q-33 0 -60 -17q-32 -20 -32 -56v-167q0 -36 29 -59q26 -20 58 -20h164q32 0 59.5 25t27.5 56
zM321 74q0 -4 -4 -11t-9 -7h-77q-29 0 -60 63q-26 53 -26 75q0 31 51 119q11 20 38 20h71q16 0 16 -17q0 -4 -4 -11t-9 -7h-71q-13 0 -36 -49q-21 -44 -21 -55q0 -13 23 -58t35 -45h71q12 0 12 -17z" />
    <glyph glyph-name="trademark" unicode="&#x2122;" horiz-adv-x="515" 
d="M220 475q0 -10 -17 -12q-18 0 -17 30h-35v-227q1 -9 -17 -11q-17 0 -17 12v226h-33l-2 -18q-3 -12 -16 -12q-18 0 -18 12v53h172v-53zM450 267q0 -12 -17 -12q-14 0 -17 13l-1 212q-12 -16 -32 -48q0 -7 -5 -22q-4 -6 -13 -6q-14 0 -15.5 9.5t-3.5 17.5q0 1 -31 48
l-3 -211q-2 -13 -17 -13q-17 0 -17 15v258h44l42 -62l42 62h44v-261z" />
    <glyph glyph-name="acute" unicode="&#xb4;" horiz-adv-x="0" 
 />
    <glyph glyph-name="dieresis" unicode="&#xa8;" horiz-adv-x="0" 
 />
    <glyph glyph-name="AE" unicode="&#xc6;" horiz-adv-x="0" 
 />
    <glyph glyph-name="Oslash" unicode="&#xd8;" horiz-adv-x="0" 
 />
    <glyph glyph-name="plusminus" unicode="&#xb1;" horiz-adv-x="0" 
 />
    <glyph glyph-name="yen" unicode="&#xa5;" 
d="M427 213q0 -7 -8 -19q-9 -15 -19 -15h-114v-159q0 -16 -34 -20q-9 0 -20 5q-14 7 -14 19v155h-114q-24 0 -24 34q0 35 21 35h115q2 2 2 8q0 9 -69 125t-69 128q0 36 33 36q20 0 76 -92l60 -106l65 105q59 93 78 93q16 0 25.5 -11.5t9.5 -25.5q0 -3 -70.5 -122t-70.5 -123
v-15h117q10 0 17 -13.5t7 -21.5z" />
    <glyph glyph-name="mu" unicode="&#xb5;" horiz-adv-x="0" 
 />
    <glyph glyph-name="ordfeminine" unicode="&#xaa;" horiz-adv-x="0" 
 />
    <glyph glyph-name="ordmasculine" unicode="&#xba;" horiz-adv-x="0" 
 />
    <glyph glyph-name="ae" unicode="&#xe6;" horiz-adv-x="0" 
 />
    <glyph glyph-name="oslash" unicode="&#xf8;" horiz-adv-x="0" 
 />
    <glyph glyph-name="questiondown" unicode="&#xbf;" horiz-adv-x="0" 
 />
    <glyph glyph-name="exclamdown" unicode="&#xa1;" horiz-adv-x="0" 
 />
    <glyph glyph-name="logicalnot" unicode="&#xac;" horiz-adv-x="0" 
 />
    <glyph glyph-name="florin" unicode="&#x192;" 
d="M457 481q0 -10 -7 -21t-19 -11h-91q-14 0 -29.5 -12t-16.5 -28v-32h79q12 0 19 -10.5t7 -20.5q0 -11 -8 -23t-18 -12h-79v-291q0 -103 -156 -103q-42 0 -46 1q-29 6 -29 34q0 31 27 31h93q14 0 30 14.5t16 28.5v283q-22 2 -44 6t-22 29q0 35 63 33q-1 88 48 118
q33 20 109 20q39 0 47 -2q27 -6 27 -32z" />
    <glyph glyph-name="guillemotleft" unicode="&#xab;" horiz-adv-x="0" 
 />
    <glyph glyph-name="guillemotright" unicode="&#xbb;" horiz-adv-x="0" 
 />
    <glyph glyph-name="ellipsis" unicode="&#x2026;" 
d="M504 154q0 -49 -13 -59q-8 -7 -56 -7q-47 0 -58 9.5t-11 55.5q0 47 9.5 56t59.5 9q48 0 58.5 -10t10.5 -54zM322 154q0 -49 -10.5 -57.5t-58.5 -8.5q-46 0 -57 9.5t-11 55.5q0 47 9.5 56t58.5 9t59 -10t10 -54zM140 154q0 -49 -10.5 -57.5t-57.5 -8.5t-58 9.5t-11 55.5
q0 47 9.5 56t59.5 9q48 0 58 -10t10 -54z" />
    <glyph glyph-name="nonbreakingspace" unicode="&#xa0;" 
 />
    <glyph glyph-name="Agrave" unicode="&#xc0;" horiz-adv-x="0" 
 />
    <glyph glyph-name="Atilde" unicode="&#xc3;" horiz-adv-x="0" 
 />
    <glyph glyph-name="Otilde" unicode="&#xd5;" horiz-adv-x="0" 
 />
    <glyph glyph-name="OE" unicode="&#x152;" horiz-adv-x="0" 
 />
    <glyph glyph-name="oe" unicode="&#x153;" horiz-adv-x="0" 
 />
    <glyph glyph-name="endash" unicode="&#x2013;" horiz-adv-x="0" 
 />
    <glyph glyph-name="emdash" unicode="&#x2014;" horiz-adv-x="0" 
 />
    <glyph glyph-name="quotedblleft" unicode="&#x201c;" 
d="M496 329q0 -11 -8.5 -22.5t-18.5 -11.5h-153q-9 0 -18 11.5t-9 17.5v195q0 11 15 18q11 6 20 6q37 0 37 -37v-143h111q11 1 18 -14q6 -11 6 -20zM229 331q0 -10 -6 -21q-7 -15 -18 -15h-156q-9 0 -18 11t-9 18v195q0 11 15 18q11 6 19 6q9 0 20 -5q15 -7 15 -16v-159h117
q19 1 21 -32z" />
    <glyph glyph-name="quotedblright" unicode="&#x201d;" 
d="M487 323q0 -9 -9.5 -18.5t-16.5 -9.5h-156q-24 0 -24 34q0 35 21 34h117v156q0 11 14 18q11 6 20 6q8 0 21 -7t13 -16v-197zM220 323q0 -9 -9.5 -18.5t-16.5 -9.5h-154q-10 0 -18 13t-8 21t7 21.5t17 12.5h114v156q0 11 12 17.5t22 6.5t20 -5q14 -7 14 -18v-197z" />
    <glyph glyph-name="quoteleft" unicode="&#x2018;" 
d="M361 329q0 -34 -27 -34h-153q-8 0 -17.5 11t-9.5 18v195q0 11 15 18q11 6 20 6q8 0 19 -5q15 -7 15 -16v-159h117q17 1 21 -34z" />
    <glyph glyph-name="quoteright" unicode="&#x2019;" 
d="M372 323q0 -9 -10 -18.5t-17 -9.5h-156q-24 0 -24 34q0 35 21 34h117v159q0 10 15 16q11 5 19 5t21.5 -7.5t13.5 -15.5v-197z" />
    <glyph glyph-name="divide" unicode="&#xf7;" 
d="M314 391q0 -31 -6.5 -36t-36.5 -5q-32 0 -37 5.5t-5 34.5t5.5 34.5t36.5 5.5q30 0 36.5 -6t6.5 -33zM394 256q0 -9 -7.5 -25t-16.5 -16h-200q-12 0 -19 17q-5 12 -5 23q0 42 35 42h178q35 0 35 -41zM314 118q0 -30 -7.5 -35.5t-36.5 -5.5q-31 0 -37 8q-4 5 -4 33
q0 25 11 39h62q12 -8 12 -39z" />
    <glyph glyph-name="ydieresis" unicode="&#xff;" horiz-adv-x="0" 
 />
    <glyph glyph-name="Ydieresis" unicode="&#x178;" horiz-adv-x="0" 
 />
    <glyph glyph-name="currency" unicode="&#xa4;" 
d="M468 193q0 -49 -50 -44q-2 -2 -2 -49q-1 -30 -45 -66.5t-77 -33.5q-9 -38 -15.5 -45t-32.5 -7q-46 0 -42 50q-20 1 -64 32q-52 35 -52 68v48q-37 6 -46 14t-9 33q0 28 13 36q10 6 40 5q2 2 2 40q0 31 41.5 67t71.5 36q2 30 11 41.5t34 11.5q21 0 31 -7v0q13 -10 14 -43
q19 0 67 -28q58 -34 58 -67v-49q52 -2 52 -43zM350 117v146q0 28 -45 41q-27 7 -54 7q-97 0 -97 -51v-143q0 -31 44 -44q24 -7 51 -7q101 0 101 51z" />
    <glyph glyph-name="guilsinglleft" unicode="&#x2039;" horiz-adv-x="0" 
 />
    <glyph glyph-name="guilsinglright" unicode="&#x203a;" horiz-adv-x="0" 
 />
    <glyph glyph-name="daggerdbl" unicode="&#x2021;" horiz-adv-x="0" 
 />
    <glyph glyph-name="periodcentered" unicode="&#x2219;" 
d="M322 306q0 -49 -10.5 -57.5t-58.5 -8.5q-46 0 -57 9.5t-11 54.5q0 46 11 55.5t57 9.5q49 0 59 -9.5t10 -53.5z" />
    <glyph glyph-name="quotesinglbase" unicode="&#x201a;" 
d="M380 -71q0 -8 -9.5 -19.5t-19.5 -11.5h-145q-13 0 -24 15q-8 12 -8 22q0 8 7 21.5t16 12.5h112v145q0 35 37 35q8 0 21 -7t13 -16v-197z" />
    <glyph glyph-name="quotedblbase" unicode="&#x201e;" horiz-adv-x="0" 
 />
    <glyph glyph-name="perthousand" unicode="&#x2030;" horiz-adv-x="0" 
 />
    <glyph glyph-name="Acircumflex" unicode="&#xc2;" horiz-adv-x="0" 
 />
    <glyph glyph-name="Ecircumflex" unicode="&#xca;" horiz-adv-x="0" 
 />
    <glyph glyph-name="Aacute" unicode="&#xc1;" horiz-adv-x="0" 
 />
    <glyph glyph-name="Edieresis" unicode="&#xcb;" horiz-adv-x="0" 
 />
    <glyph glyph-name="Egrave" unicode="&#xc8;" horiz-adv-x="0" 
 />
    <glyph glyph-name="Iacute" unicode="&#xcd;" horiz-adv-x="0" 
 />
    <glyph glyph-name="Icircumflex" unicode="&#xce;" horiz-adv-x="0" 
 />
    <glyph glyph-name="Idieresis" unicode="&#xcf;" horiz-adv-x="0" 
 />
    <glyph glyph-name="Igrave" unicode="&#xcc;" horiz-adv-x="0" 
 />
    <glyph glyph-name="Oacute" unicode="&#xd3;" horiz-adv-x="0" 
 />
    <glyph glyph-name="Ocircumflex" unicode="&#xd4;" horiz-adv-x="0" 
 />
    <glyph glyph-name="Ograve" unicode="&#xd2;" horiz-adv-x="0" 
 />
    <glyph glyph-name="Uacute" unicode="&#xda;" horiz-adv-x="0" 
 />
    <glyph glyph-name="Ucircumflex" unicode="&#xdb;" horiz-adv-x="0" 
 />
    <glyph glyph-name="Ugrave" unicode="&#xd9;" horiz-adv-x="0" 
 />
    <glyph glyph-name="circumflex" unicode="&#x2c6;" horiz-adv-x="0" 
 />
    <glyph glyph-name="tilde" unicode="&#x2dc;" horiz-adv-x="0" 
 />
    <glyph glyph-name="macron" unicode="&#xaf;" horiz-adv-x="0" 
 />
    <glyph glyph-name="cedilla" unicode="&#xb8;" horiz-adv-x="0" 
 />
    <glyph glyph-name="Scaron" unicode="&#x160;" horiz-adv-x="0" 
 />
    <glyph glyph-name="scaron" unicode="&#x161;" horiz-adv-x="0" 
 />
    <glyph glyph-name="brokenbar" unicode="&#xa6;" horiz-adv-x="0" 
 />
    <glyph glyph-name="Eth" unicode="&#xd0;" horiz-adv-x="0" 
 />
    <glyph glyph-name="eth" unicode="&#xf0;" horiz-adv-x="0" 
 />
    <glyph glyph-name="Yacute" unicode="&#xdd;" horiz-adv-x="0" 
 />
    <glyph glyph-name="yacute" unicode="&#xfd;" horiz-adv-x="0" 
 />
    <glyph glyph-name="Thorn" unicode="&#xde;" horiz-adv-x="0" 
 />
    <glyph glyph-name="thorn" unicode="&#xfe;" horiz-adv-x="0" 
 />
    <glyph glyph-name="minus" unicode="&#xad;" horiz-adv-x="0" 
 />
    <glyph glyph-name="multiply" unicode="&#xd7;" horiz-adv-x="0" 
 />
    <glyph glyph-name="onesuperior" unicode="&#xb9;" horiz-adv-x="0" 
 />
    <glyph glyph-name="twosuperior" unicode="&#xb2;" horiz-adv-x="0" 
 />
    <glyph glyph-name="threesuperior" unicode="&#xb3;" horiz-adv-x="0" 
 />
    <glyph glyph-name="onehalf" unicode="&#xbd;" horiz-adv-x="0" 
 />
    <glyph glyph-name="onequarter" unicode="&#xbc;" horiz-adv-x="0" 
 />
    <glyph glyph-name="threequarters" unicode="&#xbe;" horiz-adv-x="0" 
 />
    <glyph glyph-name="Lslash" unicode="&#x141;" horiz-adv-x="0" 
 />
    <glyph glyph-name="lslash" unicode="&#x142;" horiz-adv-x="0" 
 />
    <glyph glyph-name="Zcaron" unicode="&#x17d;" horiz-adv-x="0" 
 />
    <glyph glyph-name="zcaron" unicode="&#x17e;" horiz-adv-x="0" 
 />
    <glyph glyph-name="fraction" unicode="&#x2215;" horiz-adv-x="0" 
 />
    <glyph glyph-name="fi" unicode="&#xf001;" horiz-adv-x="1000" 
 />
    <glyph glyph-name="fl" unicode="&#xf002;" horiz-adv-x="1000" 
 />
    <glyph glyph-name="dotlessi" unicode="&#x131;" horiz-adv-x="0" 
 />
    <glyph glyph-name="breve" unicode="&#x2d8;" horiz-adv-x="0" 
 />
    <glyph glyph-name="dotaccent" unicode="&#x2d9;" horiz-adv-x="0" 
 />
    <glyph glyph-name="ring" unicode="&#x2da;" horiz-adv-x="0" 
 />
    <glyph glyph-name="hungarumlaut" unicode="&#x2dd;" horiz-adv-x="0" 
 />
    <glyph glyph-name="ogonek" unicode="&#x2db;" horiz-adv-x="0" 
 />
    <glyph glyph-name="caron" unicode="&#x2c7;" horiz-adv-x="0" 
 />
  </font>
</defs>
</svg>
